<?xml version="1.0" encoding="utf-8"?>
<svg version="1.1" xmlns:xlink="http://www.w3.org/1999/xlink" width="14px" height="14px" xmlns="http://www.w3.org/2000/svg">
  <g>
    <path d="M 13.7215909090909 5.36931818181818  C 13.907196969697 5.55492424242424  14 5.78030303030303  14 6.04545454545455  L 14 7.95454545454545  C 14 8.21969696969697  13.907196969697 8.44507575757576  13.7215909090909 8.63068181818182  C 13.5359848484848 8.81628787878788  13.3106060606061 8.90909090909091  13.0454545454545 8.90909090909091  L 8.90909090909091 8.90909090909091  L 8.90909090909091 13.0454545454545  C 8.90909090909091 13.3106060606061  8.81628787878788 13.5359848484848  8.63068181818182 13.7215909090909  C 8.44507575757576 13.907196969697  8.21969696969697 14  7.95454545454546 14  L 6.04545454545455 14  C 5.78030303030303 14  5.55492424242424 13.907196969697  5.36931818181818 13.7215909090909  C 5.18371212121212 13.5359848484848  5.09090909090909 13.3106060606061  5.09090909090909 13.0454545454545  L 5.09090909090909 8.90909090909091  L 0.954545454545454 8.90909090909091  C 0.689393939393939 8.90909090909091  0.464015151515152 8.81628787878788  0.278409090909091 8.63068181818182  C 0.0928030303030303 8.44507575757576  0 8.21969696969697  0 7.95454545454545  L 0 6.04545454545455  C 0 5.78030303030303  0.0928030303030303 5.55492424242424  0.278409090909091 5.36931818181818  C 0.464015151515152 5.18371212121212  0.689393939393939 5.09090909090909  0.954545454545454 5.09090909090909  L 5.09090909090909 5.09090909090909  L 5.09090909090909 0.954545454545455  C 5.09090909090909 0.689393939393939  5.18371212121212 0.464015151515151  5.36931818181818 0.278409090909091  C 5.55492424242424 0.0928030303030298  5.78030303030303 0  6.04545454545455 0  L 7.95454545454546 0  C 8.21969696969697 0  8.44507575757576 0.0928030303030298  8.63068181818182 0.278409090909091  C 8.81628787878788 0.464015151515151  8.90909090909091 0.689393939393939  8.90909090909091 0.954545454545455  L 8.90909090909091 5.09090909090909  L 13.0454545454545 5.09090909090909  C 13.3106060606061 5.09090909090909  13.5359848484848 5.18371212121212  13.7215909090909 5.36931818181818  Z " fill-rule="nonzero" fill="#aaaaaa" stroke="none" />
  </g>
</svg>