<?xml version="1.0" encoding="utf-8"?>
<svg version="1.1" xmlns:xlink="http://www.w3.org/1999/xlink" width="14px" height="4px" xmlns="http://www.w3.org/2000/svg">
  <g transform="matrix(1 0 0 1 0 -5 )">
    <path d="M 13.7215909090909 0.291666666666667  C 13.907196969697 0.486111111111109  14 0.722222222222221  14 1  L 14 3  C 14 3.27777777777778  13.907196969697 3.51388888888889  13.7215909090909 3.70833333333333  C 13.5359848484848 3.90277777777778  13.3106060606061 4  13.0454545454545 4  L 0.954545454545454 4  C 0.689393939393939 4  0.464015151515152 3.90277777777778  0.278409090909091 3.70833333333333  C 0.0928030303030303 3.51388888888889  0 3.27777777777778  0 3  L 0 1  C 0 0.722222222222221  0.0928030303030303 0.486111111111109  0.278409090909091 0.291666666666667  C 0.464015151515152 0.0972222222222214  0.689393939393939 0  0.954545454545454 0  L 13.0454545454545 0  C 13.3106060606061 0  13.5359848484848 0.0972222222222214  13.7215909090909 0.291666666666667  Z " fill-rule="nonzero" fill="#aaaaaa" stroke="none" transform="matrix(1 0 0 1 0 5 )" />
  </g>
</svg>