<?xml version="1.0" encoding="utf-8"?>
<svg version="1.1" xmlns:xlink="http://www.w3.org/1999/xlink" width="50px" height="50px" xmlns="http://www.w3.org/2000/svg">
  <g transform="matrix(1 0 0 1 -305 -82 )">
    <path d="M 20.0613839285714 32.1428571428571  L 16.9921875 22.7678571428571  L 25 16.9642857142857  L 33.0078125 22.7678571428571  L 29.9665178571429 32.1428571428571  L 20.0613839285714 32.1428571428571  Z M 15.2901785714286 1.98102678571428  C 18.3779761904762 0.660342261904762  21.6145833333333 0  25 0  C 28.3854166666667 0  31.6220238095238 0.660342261904762  34.7098214285714 1.98102678571428  C 37.7976190476191 3.30171130952381  40.4575892857143 5.078125  42.6897321428571 7.31026785714286  C 44.921875 9.54241071428572  46.6982886904762 12.2023809523809  48.0189732142857 15.2901785714286  C 49.3396577380952 18.3779761904762  50 21.6145833333333  50 25  C 50 28.3854166666667  49.3396577380952 31.6220238095238  48.0189732142857 34.7098214285714  C 46.6982886904762 37.797619047619  44.921875 40.4575892857143  42.6897321428571 42.6897321428571  C 40.4575892857143 44.921875  37.7976190476191 46.6982886904762  34.7098214285714 48.0189732142857  C 31.6220238095238 49.3396577380952  28.3854166666667 50  25 50  C 21.6145833333333 50  18.3779761904762 49.3396577380952  15.2901785714286 48.0189732142857  C 12.202380952381 46.6982886904762  9.54241071428571 44.921875  7.31026785714286 42.6897321428571  C 5.078125 40.4575892857143  3.30171130952381 37.797619047619  1.98102678571429 34.7098214285714  C 0.660342261904762 31.6220238095238  0 28.3854166666667  0 25  C 0 21.6145833333333  0.660342261904762 18.3779761904762  1.98102678571429 15.2901785714286  C 3.30171130952381 12.2023809523809  5.078125 9.54241071428572  7.31026785714286 7.31026785714286  C 9.54241071428571 5.078125  12.202380952381 3.30171130952381  15.2901785714286 1.98102678571428  Z M 41.4341517857143 33.984375  L 42.2712053571429 37.6674107142857  C 45.0427827380952 33.891369047619  46.4285714285714 29.6688988095238  46.4285714285714 25  L 46.4285714285714 24.9162946428571  L 43.5825892857143 27.3995535714286  L 36.8861607142857 21.1495535714286  L 38.6439732142857 12.1372767857143  L 42.3828125 12.4720982142857  C 39.5926339285714 8.64025297619047  35.9747023809524 6.01748511904762  31.5290178571429 4.60379464285715  L 33.0078125 8.06361607142857  L 25 12.5  L 16.9921875 8.06361607142857  L 18.4709821428571 4.60379464285715  C 14.0252976190476 6.01748511904762  10.4073660714286 8.64025297619047  7.6171875 12.4720982142857  L 11.3839285714286 12.1372767857143  L 13.1138392857143 21.1495535714286  L 6.41741071428571 27.3995535714286  L 3.57142857142857 24.9162946428571  L 3.57142857142857 25  C 3.57142857142857 29.6688988095238  4.95721726190476 33.891369047619  7.72879464285714 37.6674107142857  L 8.56584821428571 33.984375  L 17.6618303571429 35.1004464285714  L 21.5401785714286 43.4151785714286  L 18.3035714285714 45.3404017857143  C 20.4799107142857 46.0658482142857  22.7120535714286 46.4285714285714  25 46.4285714285714  C 27.2879464285714 46.4285714285714  29.5200892857143 46.0658482142857  31.6964285714286 45.3404017857143  L 28.4598214285714 43.4151785714286  L 32.3381696428571 35.1004464285714  L 41.4341517857143 33.984375  Z " fill-rule="nonzero" fill="#d7d7d7" stroke="none" transform="matrix(1 0 0 1 305 82 )" />
  </g>
</svg>