<?xml version="1.0" encoding="utf-8"?>
<svg version="1.1" xmlns:xlink="http://www.w3.org/1999/xlink" width="28px" height="30px" xmlns="http://www.w3.org/2000/svg">
  <defs>
    <mask fill="white" id="clip61">
      <path d="M 27.2961956521739 13.2670089858793  C 27.7653985507246 13.7163029525032  28 14.2939666238768  28 15  C 28 15.6931964056483  27.7653985507246 16.2772785622593  27.2961956521739 16.7522464698331  L 14.9130434782609 29.2875481386393  C 14.4184782608696 29.7625160462131  13.8414855072464 30  13.1820652173913 30  C 12.5353260869565 30  11.9646739130435 29.7625160462131  11.4701086956522 29.2875481386393  L 10.0434782608696 27.8433889602054  C 9.56159420289855 27.3555840821566  9.32065217391304 26.7715019255456  9.32065217391304 26.0911424903723  C 9.32065217391304 25.410783055199  9.56159420289855 24.8267008985879  10.0434782608696 24.3388960205392  L 15.616847826087 18.6970474967908  L 2.22554347826087 18.6970474967908  C 1.5661231884058 18.6970474967908  1.03034420289855 18.4563543003851  0.61820652173913 17.9749679075738  C 0.20606884057971 17.4935815147625  0 16.9127086007702  0 16.2323491655969  L 0 13.7676508344031  C 0 13.0872913992298  0.20606884057971 12.5064184852375  0.61820652173913 12.0250320924262  C 1.03034420289855 11.5436456996149  1.5661231884058 11.3029525032092  2.22554347826087 11.3029525032092  L 15.616847826087 11.3029525032092  L 10.0434782608696 5.6418485237484  C 9.56159420289855 5.17971758664955  9.32065217391304 4.602053915276  9.32065217391304 3.90885750962773  C 9.32065217391304 3.21566110397946  9.56159420289855 2.63799743260591  10.0434782608696 2.17586649550706  L 11.4701086956522 0.731707317073171  C 11.9519927536232 0.243902439024388  12.5226449275362 0  13.1820652173913 0  C 13.8541666666667 0  14.4311594202899 0.243902439024388  14.9130434782609 0.731707317073171  L 27.2961956521739 13.2670089858793  Z " fill-rule="evenodd" />
    </mask>
  </defs>
  <g transform="matrix(1 0 0 1 -696 -414 )">
    <path d="M 27.2961956521739 13.2670089858793  C 27.7653985507246 13.7163029525032  28 14.2939666238768  28 15  C 28 15.6931964056483  27.7653985507246 16.2772785622593  27.2961956521739 16.7522464698331  L 14.9130434782609 29.2875481386393  C 14.4184782608696 29.7625160462131  13.8414855072464 30  13.1820652173913 30  C 12.5353260869565 30  11.9646739130435 29.7625160462131  11.4701086956522 29.2875481386393  L 10.0434782608696 27.8433889602054  C 9.56159420289855 27.3555840821566  9.32065217391304 26.7715019255456  9.32065217391304 26.0911424903723  C 9.32065217391304 25.410783055199  9.56159420289855 24.8267008985879  10.0434782608696 24.3388960205392  L 15.616847826087 18.6970474967908  L 2.22554347826087 18.6970474967908  C 1.5661231884058 18.6970474967908  1.03034420289855 18.4563543003851  0.61820652173913 17.9749679075738  C 0.20606884057971 17.4935815147625  0 16.9127086007702  0 16.2323491655969  L 0 13.7676508344031  C 0 13.0872913992298  0.20606884057971 12.5064184852375  0.61820652173913 12.0250320924262  C 1.03034420289855 11.5436456996149  1.5661231884058 11.3029525032092  2.22554347826087 11.3029525032092  L 15.616847826087 11.3029525032092  L 10.0434782608696 5.6418485237484  C 9.56159420289855 5.17971758664955  9.32065217391304 4.602053915276  9.32065217391304 3.90885750962773  C 9.32065217391304 3.21566110397946  9.56159420289855 2.63799743260591  10.0434782608696 2.17586649550706  L 11.4701086956522 0.731707317073171  C 11.9519927536232 0.243902439024388  12.5226449275362 0  13.1820652173913 0  C 13.8541666666667 0  14.4311594202899 0.243902439024388  14.9130434782609 0.731707317073171  L 27.2961956521739 13.2670089858793  Z " fill-rule="nonzero" fill="#666666" stroke="none" transform="matrix(1 0 0 1 696 414 )" />
    <path d="M 27.2961956521739 13.2670089858793  C 27.7653985507246 13.7163029525032  28 14.2939666238768  28 15  C 28 15.6931964056483  27.7653985507246 16.2772785622593  27.2961956521739 16.7522464698331  L 14.9130434782609 29.2875481386393  C 14.4184782608696 29.7625160462131  13.8414855072464 30  13.1820652173913 30  C 12.5353260869565 30  11.9646739130435 29.7625160462131  11.4701086956522 29.2875481386393  L 10.0434782608696 27.8433889602054  C 9.56159420289855 27.3555840821566  9.32065217391304 26.7715019255456  9.32065217391304 26.0911424903723  C 9.32065217391304 25.410783055199  9.56159420289855 24.8267008985879  10.0434782608696 24.3388960205392  L 15.616847826087 18.6970474967908  L 2.22554347826087 18.6970474967908  C 1.5661231884058 18.6970474967908  1.03034420289855 18.4563543003851  0.61820652173913 17.9749679075738  C 0.20606884057971 17.4935815147625  0 16.9127086007702  0 16.2323491655969  L 0 13.7676508344031  C 0 13.0872913992298  0.20606884057971 12.5064184852375  0.61820652173913 12.0250320924262  C 1.03034420289855 11.5436456996149  1.5661231884058 11.3029525032092  2.22554347826087 11.3029525032092  L 15.616847826087 11.3029525032092  L 10.0434782608696 5.6418485237484  C 9.56159420289855 5.17971758664955  9.32065217391304 4.602053915276  9.32065217391304 3.90885750962773  C 9.32065217391304 3.21566110397946  9.56159420289855 2.63799743260591  10.0434782608696 2.17586649550706  L 11.4701086956522 0.731707317073171  C 11.9519927536232 0.243902439024388  12.5226449275362 0  13.1820652173913 0  C 13.8541666666667 0  14.4311594202899 0.243902439024388  14.9130434782609 0.731707317073171  L 27.2961956521739 13.2670089858793  Z " stroke-width="4" stroke="#ffffff" fill="none" transform="matrix(1 0 0 1 696 414 )" mask="url(#clip61)" />
  </g>
</svg>