<?xml version="1.0" encoding="utf-8"?>
<svg version="1.1" xmlns:xlink="http://www.w3.org/1999/xlink" width="28px" height="30px" xmlns="http://www.w3.org/2000/svg">
  <defs>
    <mask fill="white" id="clip12">
      <path d="M 27.3817934782609 12.0250320924262  C 27.7939311594203 12.5064184852375  28 13.0872913992298  28 13.7676508344031  L 28 16.2323491655969  C 28 16.9127086007702  27.7939311594203 17.4935815147625  27.3817934782609 17.9749679075738  C 26.9696557971015 18.4563543003851  26.4338768115942 18.6970474967908  25.7744565217391 18.6970474967908  L 12.383152173913 18.6970474967908  L 17.9565217391304 24.3581514762516  C 18.4384057971015 24.8202824133504  18.679347826087 25.397946084724  18.679347826087 26.0911424903723  C 18.679347826087 26.7843388960205  18.4384057971015 27.3620025673941  17.9565217391304 27.8241335044929  L 16.5298913043478 29.2875481386393  C 16.0606884057971 29.7625160462131  15.4900362318841 30  14.8179347826087 30  C 14.1585144927536 30  13.5815217391304 29.7625160462131  13.0869565217391 29.2875481386393  L 0.703804347826087 16.7329910141207  C 0.234601449275362 16.2580231065469  0 15.6803594351733  0 15  C 0 14.3324775353017  0.234601449275362 13.7483953786906  0.703804347826087 13.2477535301669  L 13.0869565217391 0.731707317073171  C 13.5688405797101 0.243902439024388  14.1458333333333 0  14.8179347826087 0  C 15.4773550724638 0  16.0480072463768 0.243902439024388  16.5298913043478 0.731707317073171  L 17.9565217391304 2.15661103979461  C 18.4384057971015 2.64441591784339  18.679347826087 3.22849807445442  18.679347826087 3.90885750962773  C 18.679347826087 4.58921694480102  18.4384057971015 5.17329910141206  17.9565217391304 5.66110397946085  L 12.383152173913 11.3029525032092  L 25.7744565217391 11.3029525032092  C 26.4338768115942 11.3029525032092  26.9696557971015 11.5436456996149  27.3817934782609 12.0250320924262  Z " fill-rule="evenodd" />
    </mask>
  </defs>
  <g transform="matrix(1 0 0 1 -20 -414 )">
    <path d="M 27.3817934782609 12.0250320924262  C 27.7939311594203 12.5064184852375  28 13.0872913992298  28 13.7676508344031  L 28 16.2323491655969  C 28 16.9127086007702  27.7939311594203 17.4935815147625  27.3817934782609 17.9749679075738  C 26.9696557971015 18.4563543003851  26.4338768115942 18.6970474967908  25.7744565217391 18.6970474967908  L 12.383152173913 18.6970474967908  L 17.9565217391304 24.3581514762516  C 18.4384057971015 24.8202824133504  18.679347826087 25.397946084724  18.679347826087 26.0911424903723  C 18.679347826087 26.7843388960205  18.4384057971015 27.3620025673941  17.9565217391304 27.8241335044929  L 16.5298913043478 29.2875481386393  C 16.0606884057971 29.7625160462131  15.4900362318841 30  14.8179347826087 30  C 14.1585144927536 30  13.5815217391304 29.7625160462131  13.0869565217391 29.2875481386393  L 0.703804347826087 16.7329910141207  C 0.234601449275362 16.2580231065469  0 15.6803594351733  0 15  C 0 14.3324775353017  0.234601449275362 13.7483953786906  0.703804347826087 13.2477535301669  L 13.0869565217391 0.731707317073171  C 13.5688405797101 0.243902439024388  14.1458333333333 0  14.8179347826087 0  C 15.4773550724638 0  16.0480072463768 0.243902439024388  16.5298913043478 0.731707317073171  L 17.9565217391304 2.15661103979461  C 18.4384057971015 2.64441591784339  18.679347826087 3.22849807445442  18.679347826087 3.90885750962773  C 18.679347826087 4.58921694480102  18.4384057971015 5.17329910141206  17.9565217391304 5.66110397946085  L 12.383152173913 11.3029525032092  L 25.7744565217391 11.3029525032092  C 26.4338768115942 11.3029525032092  26.9696557971015 11.5436456996149  27.3817934782609 12.0250320924262  Z " fill-rule="nonzero" fill="#d7d7d7" stroke="none" transform="matrix(1 0 0 1 20 414 )" />
    <path d="M 27.3817934782609 12.0250320924262  C 27.7939311594203 12.5064184852375  28 13.0872913992298  28 13.7676508344031  L 28 16.2323491655969  C 28 16.9127086007702  27.7939311594203 17.4935815147625  27.3817934782609 17.9749679075738  C 26.9696557971015 18.4563543003851  26.4338768115942 18.6970474967908  25.7744565217391 18.6970474967908  L 12.383152173913 18.6970474967908  L 17.9565217391304 24.3581514762516  C 18.4384057971015 24.8202824133504  18.679347826087 25.397946084724  18.679347826087 26.0911424903723  C 18.679347826087 26.7843388960205  18.4384057971015 27.3620025673941  17.9565217391304 27.8241335044929  L 16.5298913043478 29.2875481386393  C 16.0606884057971 29.7625160462131  15.4900362318841 30  14.8179347826087 30  C 14.1585144927536 30  13.5815217391304 29.7625160462131  13.0869565217391 29.2875481386393  L 0.703804347826087 16.7329910141207  C 0.234601449275362 16.2580231065469  0 15.6803594351733  0 15  C 0 14.3324775353017  0.234601449275362 13.7483953786906  0.703804347826087 13.2477535301669  L 13.0869565217391 0.731707317073171  C 13.5688405797101 0.243902439024388  14.1458333333333 0  14.8179347826087 0  C 15.4773550724638 0  16.0480072463768 0.243902439024388  16.5298913043478 0.731707317073171  L 17.9565217391304 2.15661103979461  C 18.4384057971015 2.64441591784339  18.679347826087 3.22849807445442  18.679347826087 3.90885750962773  C 18.679347826087 4.58921694480102  18.4384057971015 5.17329910141206  17.9565217391304 5.66110397946085  L 12.383152173913 11.3029525032092  L 25.7744565217391 11.3029525032092  C 26.4338768115942 11.3029525032092  26.9696557971015 11.5436456996149  27.3817934782609 12.0250320924262  Z " stroke-width="4" stroke="#ffffff" fill="none" transform="matrix(1 0 0 1 20 414 )" mask="url(#clip12)" />
  </g>
</svg>