<?xml version="1.0" encoding="utf-8"?>
<svg version="1.1" xmlns:xlink="http://www.w3.org/1999/xlink" width="16px" height="15px" xmlns="http://www.w3.org/2000/svg">
  <g transform="matrix(1 0 0 1 -329 -289 )">
    <path d="M 7.37730243612597 4.89949748743719  C 7.73222420281244 4.54773869346733  7.90968508615567 4.12060301507538  7.90968508615567 3.61809045226131  C 7.90968508615567 3.11557788944724  7.73222420281244 2.68844221105528  7.37730243612597 2.33668341708543  C 7.02238066943949 1.98492462311558  6.59140423846306 1.80904522613065  6.08437314319667 1.80904522613065  C 5.57734204793028 1.80904522613065  5.14636561695385 1.98492462311558  4.79144385026738 2.33668341708543  C 4.43652208358091 2.68844221105528  4.25906120023767 3.11557788944724  4.25906120023767 3.61809045226131  C 4.25906120023767 3.88190954773869  4.31927114280056 4.14258793969849  4.43969102792632 4.4001256281407  C 4.1798375916023 4.28077889447236  3.91681521093286 4.22110552763819  3.650623885918 4.22110552763819  C 3.14359279065161 4.22110552763819  2.71261635967518 4.39698492462311  2.35769459298871 4.74874371859297  C 2.00277282630224 5.10050251256281  1.825311942959 5.52763819095477  1.825311942959 6.03015075376884  C 1.825311942959 6.53266331658291  2.00277282630224 6.95979899497487  2.35769459298871 7.31155778894472  C 2.71261635967518 7.66331658291457  3.14359279065161 7.8391959798995  3.650623885918 7.8391959798995  C 4.15765498118439 7.8391959798995  4.58863141216082 7.66331658291457  4.9435531788473 7.31155778894472  C 5.29847494553377 6.95979899497487  5.47593582887701 6.53266331658291  5.47593582887701 6.03015075376884  C 5.47593582887701 5.76633165829146  5.41572588631412 5.50565326633166  5.29530600118835 5.24811557788945  C 5.55515943751238 5.36746231155779  5.81818181818182 5.42713567839196  6.08437314319667 5.42713567839196  C 6.59140423846306 5.42713567839196  7.02238066943949 5.25125628140703  7.37730243612597 4.89949748743719  Z M 15.729055258467 9.86494974874372  C 15.9096850861557 10.0722361809045  16 10.2010050251256  16 10.251256281407  C 16 10.358040201005  15.8447217270747 10.5653266331658  15.534165181224 10.8731155778894  C 15.2236086353733 11.1809045226131  15.014458308576 11.3347989949749  14.9067142008318 11.3347989949749  C 14.8496732026144 11.3347989949749  14.7593582887701 11.2845477386935  14.6357694592989 11.1840452261307  C 14.5121806298277 11.0835427135678  14.39651416122 10.9798994974874  14.2887700534759 10.8731155778894  C 14.1810259457318 10.7663316582915  14.0590215884334 10.6407035175879  13.9227569815805 10.4962311557789  C 13.7864923747277 10.3517587939699  13.708853238265 10.2701005025126  13.6898395721925 10.251256281407  L 12.777183600713 11.1557788944724  L 14.8686868686869 13.2286432160804  C 15.0461477520301 13.4045226130653  15.1348781937017 13.6180904522613  15.1348781937017 13.8693467336683  C 15.1348781937017 14.1331658291457  15.0112893642305 14.3875628140704  14.7641117052882 14.6325376884422  C 14.5169340463458 14.8775125628141  14.2602495543672 15  13.9940582293523 15  C 13.7405426817192 15  13.5250544662309 14.9120603015075  13.3475935828877 14.7361809045226  L 6.96850861556744 8.41394472361809  C 5.85304020598138 9.23680904522613  4.69637551990493 9.64824120603015  3.49851455733809 9.64824120603015  C 2.46543870073282 9.64824120603015  1.62408397702515 9.32631909547739  0.974450386215092 8.68247487437186  C 0.324816795405031 8.03863065326633  0 7.20477386934673  0 6.18090452261307  C 0 5.17587939698492  0.301049712814419 4.1928391959799  0.903149138443256 3.23178391959799  C 1.50524856407209 2.27072864321608  2.291146761735 1.49183417085427  3.26084373143197 0.895100502512564  C 4.23054070112894 0.298366834170853  5.22242028124381 0  6.23648247177659 0  C 7.26955832838186 0  8.11091305208952 0.321922110552763  8.76054664289958 0.965766331658291  C 9.41018023370965 1.60961055276382  9.73499702911468 2.44346733668342  9.73499702911468 3.46733668341709  C 9.73499702911468 4.65452261306533  9.31986531986532 5.80087939698492  8.48960190136661 6.90640703517588  L 11.8645276292335 10.251256281407  L 12.777183600713 9.34673366834171  C 12.7581699346405 9.32788944723618  12.6757773816597 9.25094221105528  12.5300059417706 9.115891959799  C 12.3842345018816 8.98084170854271  12.257476728065 8.85992462311558  12.1497326203209 8.75314070351759  C 12.0419885125767 8.6463567839196  11.9374133491781 8.53172110552764  11.8360071301248 8.40923366834171  C 11.7346009110715 8.28674623115578  11.6838978015449 8.19723618090452  11.6838978015449 8.14070351758794  C 11.6838978015449 8.03391959798995  11.8391760744702 7.82663316582914  12.1497326203209 7.51884422110553  C 12.4602891661715 7.21105527638191  12.6694394929689 7.0571608040201  12.777183600713 7.0571608040201  C 12.8595761536938 7.0571608040201  12.9324618736383 7.08856783919598  12.9958407605466 7.15138190954774  C 13.0338680926916 7.18907035175879  13.1796395325807 7.32883165829146  13.4331550802139 7.57066582914573  C 13.6866706278471 7.8125  13.9465240641711 8.06218592964824  14.212715389186 8.31972361809045  C 14.4789067142008 8.57726130653266  14.7530204000792 8.84736180904522  15.0350564468212 9.13002512562814  C 15.3170924935631 9.41268844221105  15.5484254307784 9.65766331658291  15.729055258467 9.86494974874372  Z " fill-rule="nonzero" fill="#169bd5" stroke="none" transform="matrix(1 0 0 1 329 289 )" />
  </g>
</svg>