<?xml version="1.0" encoding="utf-8"?>
<svg version="1.1" xmlns:xlink="http://www.w3.org/1999/xlink" width="15px" height="16px" xmlns="http://www.w3.org/2000/svg">
  <g transform="matrix(1 0 0 1 -330 -183 )">
    <path d="M 14.9627130681818 12.2239583333333  C 14.9875710227273 12.5746527777778  15 12.9340277777778  15 13.3020833333333  C 15 14.1354166666667  14.7407670454545 14.7934027777778  14.2223011363636 15.2760416666667  C 13.7038352272727 15.7586805555556  13.0149147727273 16  12.1555397727273 16  L 2.84446022727273 16  C 1.98508522727273 16  1.29616477272727 15.7586805555556  0.777698863636364 15.2760416666667  C 0.259232954545455 14.7934027777778  0 14.1354166666667  0 13.3020833333333  C 0 12.9340277777778  0.0124289772727273 12.5746527777778  0.0372869318181818 12.2239583333333  C 0.0621448863636364 11.8732638888889  0.111860795454545 11.4947916666667  0.186434659090909 11.0885416666667  C 0.261008522727273 10.6822916666667  0.355113636363636 10.3055555555556  0.46875 9.95833333333333  C 0.582386363636364 9.61111111111111  0.735085227272727 9.27256944444444  0.926846590909091 8.94270833333333  C 1.11860795454545 8.61284722222222  1.33877840909091 8.33159722222222  1.58735795454545 8.09895833333333  C 1.8359375 7.86631944444444  2.13955965909091 7.68055555555556  2.49822443181818 7.54166666666667  C 2.85688920454545 7.40277777777778  3.25284090909091 7.33333333333333  3.68607954545455 7.33333333333333  C 3.75 7.33333333333333  3.89914772727273 7.40798611111111  4.13352272727273 7.55729166666667  C 4.36789772727273 7.70659722222222  4.63245738636364 7.87326388888889  4.92720170454546 8.05729166666667  C 5.22194602272727 8.24131944444444  5.60546875 8.40798611111111  6.07776988636364 8.55729166666667  C 6.55007102272727 8.70659722222222  7.02414772727273 8.78125  7.5 8.78125  C 7.97585227272727 8.78125  8.44992897727273 8.70659722222222  8.92223011363636 8.55729166666667  C 9.39453125 8.40798611111111  9.77805397727273 8.24131944444444  10.0727982954545 8.05729166666667  C 10.3675426136364 7.87326388888889  10.6321022727273 7.70659722222222  10.8664772727273 7.55729166666667  C 11.1008522727273 7.40798611111111  11.25 7.33333333333333  11.3139204545455 7.33333333333333  C 11.7471590909091 7.33333333333333  12.1431107954545 7.40277777777778  12.5017755681818 7.54166666666667  C 12.8604403409091 7.68055555555556  13.1640625 7.86631944444444  13.4126420454545 8.09895833333333  C 13.6612215909091 8.33159722222222  13.8813920454545 8.61284722222222  14.0731534090909 8.94270833333333  C 14.2649147727273 9.27256944444444  14.4176136363636 9.61111111111111  14.53125 9.95833333333333  C 14.6448863636364 10.3055555555556  14.7389914772727 10.6822916666667  14.8135653409091 11.0885416666667  C 14.8881392045455 11.4947916666667  14.9378551136364 11.8732638888889  14.9627130681818 12.2239583333333  Z M 10.3924005681818 1.171875  C 11.19140625 1.953125  11.5909090909091 2.89583333333333  11.5909090909091 4  C 11.5909090909091 5.10416666666667  11.19140625 6.046875  10.3924005681818 6.828125  C 9.59339488636364 7.609375  8.62926136363636 8  7.5 8  C 6.37073863636364 8  5.40660511363636 7.609375  4.60759943181818 6.828125  C 3.80859375 6.046875  3.40909090909091 5.10416666666667  3.40909090909091 4  C 3.40909090909091 2.89583333333333  3.80859375 1.953125  4.60759943181818 1.171875  C 5.40660511363636 0.390625  6.37073863636364 0  7.5 0  C 8.62926136363636 0  9.59339488636364 0.390625  10.3924005681818 1.171875  Z " fill-rule="nonzero" fill="#333333" stroke="none" transform="matrix(1 0 0 1 330 183 )" />
  </g>
</svg>