<?xml version="1.0" encoding="utf-8"?>
<svg version="1.1" xmlns:xlink="http://www.w3.org/1999/xlink" width="18px" height="15px" xmlns="http://www.w3.org/2000/svg">
  <g transform="matrix(1 0 0 1 -328 -337 )">
    <path d="M 7.32397959183673 13.716796875  C 7.31632653061224 13.759765625  7.32397959183673 13.8125  7.3469387755102 13.875  C 7.3469387755102 13.90625  7.35076530612245 13.984375  7.35841836734694 14.109375  C 7.36607142857143 14.234375  7.36798469387755 14.337890625  7.36415816326531 14.419921875  C 7.36033163265306 14.501953125  7.34885204081633 14.59375  7.3297193877551 14.6953125  C 7.31058673469388 14.796875  7.27232142857143 14.873046875  7.21492346938776 14.923828125  C 7.15752551020408 14.974609375  7.07908163265306 15  6.97959183673469 15  L 3.30612244897959 15  C 2.39540816326531 15  1.61670918367347 14.669921875  0.970025510204082 14.009765625  C 0.323341836734694 13.349609375  0 12.5546875  0 11.625  L 0 3.375  C 0 2.4453125  0.323341836734694 1.650390625  0.970025510204082 0.990234375  C 1.61670918367347 0.330078124999998  2.39540816326531 0  3.30612244897959 0  L 6.97959183673469 0  C 7.07908163265306 0  7.16517857142857 0.0371093749999979  7.23788265306122 0.111328125  C 7.31058673469388 0.185546874999999  7.3469387755102 0.273437499999999  7.3469387755102 0.375  C 7.3469387755102 0.406249999999999  7.35076530612245 0.484374999999999  7.35841836734694 0.609375  C 7.36607142857143 0.734374999999998  7.36798469387755 0.837890625000001  7.36415816326531 0.919921874999999  C 7.36033163265306 1.001953125  7.34885204081633 1.09375  7.3297193877551 1.1953125  C 7.31058673469388 1.296875  7.27232142857143 1.373046875  7.21492346938776 1.423828125  C 7.15752551020408 1.474609375  7.07908163265306 1.5  6.97959183673469 1.5  L 3.30612244897959 1.5  C 2.80102040816327 1.5  2.36862244897959 1.68359375  2.00892857142857 2.05078125  C 1.64923469387755 2.41796875  1.46938775510204 2.859375  1.46938775510204 3.375  L 1.46938775510204 11.625  C 1.46938775510204 12.140625  1.64923469387755 12.58203125  2.00892857142857 12.94921875  C 2.36862244897959 13.31640625  2.80102040816327 13.5  3.30612244897959 13.5  L 6.61224489795918 13.5  L 6.73852040816327 13.5  L 6.88775510204082 13.5  C 6.88775510204082 13.5  6.93176020408163 13.50390625  7.01977040816327 13.51171875  C 7.1077806122449 13.51953125  7.15178571428571 13.53125  7.15178571428571 13.546875  C 7.15178571428571 13.5625  7.18239795918367 13.583984375  7.24362244897959 13.611328125  C 7.30484693877551 13.638671875  7.33163265306123 13.673828125  7.32397959183673 13.716796875  Z M 17.781887755102 6.97265625  C 17.9272959183673 7.12109375  18 7.296875  18 7.5  C 18 7.703125  17.9272959183673 7.87890625  17.781887755102 8.02734375  L 11.5369897959184 14.40234375  C 11.3915816326531 14.55078125  11.219387755102 14.625  11.0204081632653 14.625  C 10.8214285714286 14.625  10.6492346938776 14.55078125  10.5038265306122 14.40234375  C 10.3584183673469 14.25390625  10.2857142857143 14.078125  10.2857142857143 13.875  L 10.2857142857143 10.5  L 5.14285714285714 10.5  C 4.94387755102041 10.5  4.77168367346939 10.42578125  4.62627551020408 10.27734375  C 4.48086734693878 10.12890625  4.40816326530612 9.953125  4.40816326530612 9.75  L 4.40816326530612 5.25  C 4.40816326530612 5.046875  4.48086734693878 4.87109375  4.62627551020408 4.72265625  C 4.77168367346939 4.57421875  4.94387755102041 4.5  5.14285714285714 4.5  L 10.2857142857143 4.5  L 10.2857142857143 1.125  C 10.2857142857143 0.921874999999998  10.3584183673469 0.746093749999998  10.5038265306122 0.597656249999999  C 10.6492346938776 0.449218749999999  10.8214285714286 0.375  11.0204081632653 0.375  C 11.219387755102 0.375  11.3915816326531 0.449218749999999  11.5369897959184 0.597656249999999  L 17.781887755102 6.97265625  Z " fill-rule="nonzero" fill="#169bd5" stroke="none" transform="matrix(1 0 0 1 328 337 )" />
  </g>
</svg>