<?xml version="1.0" encoding="utf-8"?>
<svg version="1.1" xmlns:xlink="http://www.w3.org/1999/xlink" width="22px" height="22px" xmlns="http://www.w3.org/2000/svg">
  <g transform="matrix(1 0 0 1 -451 -9 )">
    <path d="M 0.0137328366397472 11  C 0.0137328366397472 4.9321473051264  4.9321473051264 0.0137328366397472  11 0.0137328366397472  C 17.0678526948736 0.0137328366397472  21.9862671633603 4.93214732926615  21.9862671633603 11  C 21.9862671633603 17.0678526707338  17.0678526707338 21.9862671633603  11 21.9862671633603  C 4.93214732926615 21.9862671633603  0.0137328366397472 17.0678526948736  0.0137328366397472 11  Z M 6.67896379257374 11.4854556750351  L 10.3133583128511 7.85106117889747  L 10.3133583128511 15.8064918824614  C 10.3133583128511 16.1857136148718  10.6207782675896 16.4931335696103  11 16.4931335696103  C 11.3792217324104 16.4931335696103  11.6866416871489 16.1857136148718  11.6866416871489 15.8064918824614  L 11.6866416871489 7.85106117889747  L 15.3210362074263 11.4854556750351  C 15.4490530770493 11.6090985699561  15.6200772140927 11.6782042206138  15.7980544159263 11.6782042206138  C 16.1772761483367 11.6782042206138  16.4846961030752 11.3707842658753  16.4846961030752 10.9915625334649  C 16.4846961030752 10.8135853316313  16.4155904524175 10.6425611945879  16.2919475574965 10.5145443249649  L 11.4854556750351 5.70805244250351  C 11.2173221976709 5.43999992677393  10.7826778023291 5.43999992677394  10.5145443249649 5.70805244250351  L 5.70805244250351 10.5145443249649  C 5.58440954758253 10.6425611945879  5.51530389692485 10.8135853316313  5.51530389692485 10.9915625334649  C 5.51530389692485 11.3707842658753  5.82272385166331 11.6782042206138  6.20194558407373 11.6782042206138  C 6.37992278590734 11.6782042206138  6.5509469229507 11.6090985699561  6.67896379257374 11.4854556750351  Z " fill-rule="nonzero" fill="#000000" stroke="none" transform="matrix(1 0 0 1 451 9 )" />
  </g>
</svg>