<?xml version="1.0" encoding="utf-8"?>
<svg version="1.1" xmlns:xlink="http://www.w3.org/1999/xlink" width="22px" height="22px" xmlns="http://www.w3.org/2000/svg">
  <g transform="matrix(1 0 0 1 -479 -9 )">
    <path d="M 0.0137328366397472 11  C 0.0137328366397472 17.0678526948736  4.9321473051264 21.9862671633603  11 21.9862671633603  C 17.0678526948736 21.9862671633603  21.9862671633603 17.0678526707338  21.9862671633603 11  C 21.9862671633603 4.93214732926615  17.0678526707338 0.0137328366397473  11 0.0137328366397473  C 4.93214732926615 0.0137328366397473  0.0137328366397472 4.93214730512641  0.0137328366397472 11  Z M 6.67896379257374 10.5145443249649  L 10.3133583128511 14.1489388211025  L 10.3133583128511 6.19350811753862  C 10.3133583128511 5.81428638512821  10.6207782675896 5.50686643038975  11 5.50686643038975  C 11.3792217324104 5.50686643038975  11.6866416871489 5.81428638512821  11.6866416871489 6.19350811753862  L 11.6866416871489 14.1489388211025  L 15.3210362074263 10.5145443249649  C 15.4490530770493 10.3909014300439  15.6200772140927 10.3217957793862  15.7980544159263 10.3217957793862  C 16.1772761483367 10.3217957793862  16.4846961030752 10.6292157341247  16.4846961030752 11.0084374665351  C 16.4846961030752 11.1864146683687  16.4155904524175 11.3574388054121  16.2919475574965 11.4854556750351  L 11.4854556750351 16.2919475574965  C 11.2173221976709 16.5600000732261  10.7826778023291 16.5600000732261  10.5145443249649 16.2919475574965  L 5.70805244250351 11.4854556750351  C 5.58440954758253 11.3574388054121  5.51530389692485 11.1864146683687  5.51530389692485 11.0084374665351  C 5.51530389692485 10.6292157341247  5.82272385166331 10.3217957793862  6.20194558407373 10.3217957793862  C 6.37992278590734 10.3217957793862  6.5509469229507 10.3909014300439  6.67896379257374 10.5145443249649  Z " fill-rule="nonzero" fill="#d7d7d7" stroke="none" transform="matrix(1 0 0 1 479 9 )" />
  </g>
</svg>