<?xml version="1.0" encoding="utf-8"?>
<svg version="1.1" xmlns:xlink="http://www.w3.org/1999/xlink" width="47px" height="50px" xmlns="http://www.w3.org/2000/svg">
  <defs>
    <mask fill="white" id="clip34">
      <path d="M 45.8186141304348 22.1116816431322  C 46.6062047101449 22.8605049208387  47 23.8232777064613  47 25  C 47 26.1553273427471  46.6062047101449 27.1287976037655  45.8186141304348 27.9204107830552  L 25.0326086956522 48.8125802310655  C 24.2024456521739 49.6041934103552  23.2339221014493 50  22.1270380434783 50  C 21.0414402173913 50  20.0835597826087 49.6041934103552  19.2533967391304 48.8125802310655  L 16.8586956521739 46.405648267009  C 16.0498188405797 45.5926401369277  15.6453804347826 44.6191698759093  15.6453804347826 43.4852374839538  C 15.6453804347826 42.3513050919983  16.0498188405797 41.3778348309799  16.8586956521739 40.5648267008986  L 26.2139945652174 31  L 3.73573369565217 31  C 2.62884963768116 31.1617458279846  1.72950634057971 30.7605905006419  1.03770380434783 29.9582798459564  C 0.345901268115942 29.1559691912709  0 28.1878476679504  0 27.0539152759949  L 0 22.9460847240051  C 0 21.8121523320496  0.345901268115942 20.8440308087291  1.03770380434783 20.0417201540436  C 1.72950634057971 19.2394094993582  2.62884963768116 18.8382541720154  3.73573369565217 19  L 26.2139945652174 19  L 16.8586956521739 9.40308087291399  C 16.0498188405797 8.63286264441592  15.6453804347826 7.67008985879333  15.6453804347826 6.51476251604621  C 15.6453804347826 5.3594351732991  16.0498188405797 4.39666238767651  16.8586956521739 3.62644415917843  L 19.2533967391304 1.21951219512195  C 20.0622735507246 0.406504065040647  21.0201539855072 0  22.1270380434783 0  C 23.2552083333333 0  24.223731884058 0.406504065040647  25.0326086956522 1.21951219512195  L 45.8186141304348 22.1116816431322  Z " fill-rule="evenodd" />
    </mask>
  </defs>
  <g transform="matrix(1 0 0 1 -745 -172 )">
    <path d="M 45.8186141304348 22.1116816431322  C 46.6062047101449 22.8605049208387  47 23.8232777064613  47 25  C 47 26.1553273427471  46.6062047101449 27.1287976037655  45.8186141304348 27.9204107830552  L 25.0326086956522 48.8125802310655  C 24.2024456521739 49.6041934103552  23.2339221014493 50  22.1270380434783 50  C 21.0414402173913 50  20.0835597826087 49.6041934103552  19.2533967391304 48.8125802310655  L 16.8586956521739 46.405648267009  C 16.0498188405797 45.5926401369277  15.6453804347826 44.6191698759093  15.6453804347826 43.4852374839538  C 15.6453804347826 42.3513050919983  16.0498188405797 41.3778348309799  16.8586956521739 40.5648267008986  L 26.2139945652174 31  L 3.73573369565217 31  C 2.62884963768116 31.1617458279846  1.72950634057971 30.7605905006419  1.03770380434783 29.9582798459564  C 0.345901268115942 29.1559691912709  0 28.1878476679504  0 27.0539152759949  L 0 22.9460847240051  C 0 21.8121523320496  0.345901268115942 20.8440308087291  1.03770380434783 20.0417201540436  C 1.72950634057971 19.2394094993582  2.62884963768116 18.8382541720154  3.73573369565217 19  L 26.2139945652174 19  L 16.8586956521739 9.40308087291399  C 16.0498188405797 8.63286264441592  15.6453804347826 7.67008985879333  15.6453804347826 6.51476251604621  C 15.6453804347826 5.3594351732991  16.0498188405797 4.39666238767651  16.8586956521739 3.62644415917843  L 19.2533967391304 1.21951219512195  C 20.0622735507246 0.406504065040647  21.0201539855072 0  22.1270380434783 0  C 23.2552083333333 0  24.223731884058 0.406504065040647  25.0326086956522 1.21951219512195  L 45.8186141304348 22.1116816431322  Z " fill-rule="nonzero" fill="#ffffff" stroke="none" transform="matrix(1 0 0 1 745 172 )" />
    <path d="M 45.8186141304348 22.1116816431322  C 46.6062047101449 22.8605049208387  47 23.8232777064613  47 25  C 47 26.1553273427471  46.6062047101449 27.1287976037655  45.8186141304348 27.9204107830552  L 25.0326086956522 48.8125802310655  C 24.2024456521739 49.6041934103552  23.2339221014493 50  22.1270380434783 50  C 21.0414402173913 50  20.0835597826087 49.6041934103552  19.2533967391304 48.8125802310655  L 16.8586956521739 46.405648267009  C 16.0498188405797 45.5926401369277  15.6453804347826 44.6191698759093  15.6453804347826 43.4852374839538  C 15.6453804347826 42.3513050919983  16.0498188405797 41.3778348309799  16.8586956521739 40.5648267008986  L 26.2139945652174 31  L 3.73573369565217 31  C 2.62884963768116 31.1617458279846  1.72950634057971 30.7605905006419  1.03770380434783 29.9582798459564  C 0.345901268115942 29.1559691912709  0 28.1878476679504  0 27.0539152759949  L 0 22.9460847240051  C 0 21.8121523320496  0.345901268115942 20.8440308087291  1.03770380434783 20.0417201540436  C 1.72950634057971 19.2394094993582  2.62884963768116 18.8382541720154  3.73573369565217 19  L 26.2139945652174 19  L 16.8586956521739 9.40308087291399  C 16.0498188405797 8.63286264441592  15.6453804347826 7.67008985879333  15.6453804347826 6.51476251604621  C 15.6453804347826 5.3594351732991  16.0498188405797 4.39666238767651  16.8586956521739 3.62644415917843  L 19.2533967391304 1.21951219512195  C 20.0622735507246 0.406504065040647  21.0201539855072 0  22.1270380434783 0  C 23.2552083333333 0  24.223731884058 0.406504065040647  25.0326086956522 1.21951219512195  L 45.8186141304348 22.1116816431322  Z " stroke-width="10" stroke="#000000" fill="none" transform="matrix(1 0 0 1 745 172 )" mask="url(#clip34)" />
  </g>
</svg>