<?xml version="1.0" encoding="utf-8"?>
<svg version="1.1" xmlns:xlink="http://www.w3.org/1999/xlink" width="8px" height="10px" xmlns="http://www.w3.org/2000/svg">
  <g transform="matrix(1 0 0 1 -10 -10 )">
    <path d="M 7.9646017699115 5  C 7.9646017699115 4.846875  7.88672566371681 4.70446428571429  7.75840707964602 4.62276785714286  L 0.678761061946902 0.106249999999999  C 0.542477876106195 0.0191964285714286  0.369911504424779 0.0138392857142858  0.229203539823009 0.0924107142857142  C 0.0876106194690268 0.170982142857143  0 0.320982142857143  0 0.483482142857143  L 0 9.51428571428571  C 0 9.67678571428571  0.0876106194690268 9.82678571428571  0.229203539823009 9.90535714285714  C 0.295575221238938 9.94241071428571  0.369026548672567 9.96071428571429  0.442477876106195 9.96071428571429  C 0.524778761061947 9.96071428571429  0.607079646017699 9.9375  0.678761061946903 9.89196428571428  L 7.75840707964602 5.37723214285714  C 7.88672566371681 5.29553571428571  7.9646017699115 5.153125  7.9646017699115 5  Z " fill-rule="nonzero" fill="#8a8a8a" stroke="none" transform="matrix(1 0 0 1 10 10 )" />
  </g>
</svg>