<?xml version="1.0" encoding="utf-8"?>
<svg version="1.1" xmlns:xlink="http://www.w3.org/1999/xlink" width="16px" height="15px" xmlns="http://www.w3.org/2000/svg">
  <g>
    <path d="M 15.9367897727273 13.2343273628049  C 15.9367897727273 14.1793302210366  15.1715198863636 14.9492663871951  14.2322443181818 15  L 1.73224431818182 15  C 0.79296875 14.9492663871951  0.0276988636363636 14.1793302210366  0 13.2343273628049  L 0 1.80140053353659  C 0.0276988636363636 0.856397675304878  0.79296875 0.0864615091463415  1.73224431818182 0.0864615091463415  L 7.48686079545455 0.0864615091463415  C 7.95916193181818 0.0864615091463415  8.41370738636364 0.286537728658537  8.73508522727273 0.634884717987805  L 10.1715198863636 2.19083460365854  C 10.2780539772727 2.30695026676829  10.4307528409091 2.373046875  10.5870028409091 2.373046875  L 14.2322443181818 2.373046875  C 15.1715198863636 2.373046875  15.9367897727273 3.14298304115854  15.9367897727273 4.08798589939024  L 15.9367897727273 13.2343273628049  Z M 7.48863636363637 1.22975419207317  L 1.73224431818182 1.22975419207317  C 1.41974431818182 1.22975419207317  1.1640625 1.48699504573171  1.1640625 1.80140053353659  L 1.1640625 13.2343273628049  C 1.1640625 13.5487328506098  1.41974431818182 13.8059737042683  1.73224431818182 13.8059737042683  L 14.2322443181818 13.8059737042683  C 14.5447443181818 13.8059737042683  14.8004261363636 13.5487328506098  14.8004261363636 13.2343273628049  L 14.8004261363636 4.08798589939024  C 14.8004261363636 3.77358041158537  14.5447443181818 3.51633955792683  14.2322443181818 3.51633955792683  L 10.5887784090909 3.51633955792683  C 10.1164772727273 3.51633955792683  9.66193181818182 3.31626333841463  9.34055397727273 2.96791634908537  L 7.90411931818182 1.41196646341463  C 7.79758522727273 1.29585080030488  7.64488636363636 1.22975419207317  7.48863636363637 1.22975419207317  Z " fill-rule="nonzero" fill="#3688ff" stroke="none" />
  </g>
</svg>