<?xml version="1.0" encoding="utf-8"?>
<svg version="1.1" xmlns:xlink="http://www.w3.org/1999/xlink" width="8px" height="5px" xmlns="http://www.w3.org/2000/svg">
  <g transform="matrix(1 0 0 1 -4 -6 )">
    <path d="M 4.98573369565217 0.622319240196078  C 4.98573369565217 0.96124387254902  4.74116847826087 1.23506433823529  4.44225543478261 1.23506433823529  L 0.578464673913043 1.23506433823529  C 0.277853260869566 1.23506433823529  0.0349864130434783 0.96124387254902  0.0349864130434783 0.622319240196078  C 0.0349864130434783 0.283394607843137  0.277853260869566 0.00957414215686274  0.578464673913043 0.00957414215686274  L 4.44225543478261 0.00957414215686274  C 4.74286684782609 0.00957414215686274  4.98573369565217 0.283394607843137  4.98573369565217 0.622319240196078  Z M 7.97995923913043 4.35623468137255  C 7.97995923913043 4.69515931372549  7.73709239130435 4.96897977941176  7.43648097826087 4.96897977941176  L 0.578464673913043 4.96897977941176  C 0.277853260869566 4.96897977941176  0.0349864130434783 4.69515931372549  0.0349864130434783 4.35623468137255  C 0.0349864130434783 4.01731004901961  0.277853260869566 3.74348958333333  0.578464673913043 3.74348958333333  L 7.43648097826087 3.74348958333333  C 7.73709239130435 3.74348958333333  7.97995923913043 4.01731004901961  7.97995923913043 4.35623468137255  Z " fill-rule="nonzero" fill="#3688ff" stroke="none" transform="matrix(1 0 0 1 4 6 )" />
  </g>
</svg>