<?xml version="1.0" encoding="utf-8"?>
<svg version="1.1" xmlns:xlink="http://www.w3.org/1999/xlink" width="16px" height="7px" xmlns="http://www.w3.org/2000/svg">
  <g>
    <path d="M 15.9545454545455 5.25  C 15.9545454545455 6.21649831220389  15.1913944599389 7  14.25 7  L 1.75 7  C 0.808605540061147 7  0.0454545454545455 6.21649831220389  0.0454545454545455 5.25  L 0.0454545454545455 1.75  C 0.0454545454545455 0.783501687796112  0.808605540061147 0  1.75 0  L 14.25 0  C 15.1913944599389 0  15.9545454545455 0.783501687796111  15.9545454545455 1.75  L 15.9545454545455 5.25  Z M 14.25 1.16666666666667  L 1.75 1.16666666666667  C 1.43620184668705 1.16666666666667  1.18181818181818 1.42783389593204  1.18181818181818 1.75  L 1.18181818181818 5.25  C 1.18181818181818 5.57216610406796  1.43620184668705 5.83333333333333  1.75 5.83333333333333  L 14.25 5.83333333333333  C 14.563798153313 5.83333333333333  14.8181818181818 5.57216610406796  14.8181818181818 5.25  L 14.8181818181818 1.75  C 14.8181818181818 1.42783389593204  14.563798153313 1.16666666666667  14.25 1.16666666666667  Z " fill-rule="nonzero" fill="#54c3f1" stroke="none" />
  </g>
</svg>