<?xml version="1.0" encoding="utf-8"?>
<svg version="1.1" xmlns:xlink="http://www.w3.org/1999/xlink" width="16px" height="7px" xmlns="http://www.w3.org/2000/svg">
  <g transform="matrix(1 0 0 1 0 -6 )">
    <path d="M 15.9545454545455 5.22697368421053  C 15.9545454545455 6.1807549133591  15.1913944599389 6.95394736842105  14.25 7  L 1.75 7  C 0.808605540061147 6.95394736842105  0.0454545454545455 6.1807549133591  0.0454545454545455 5.22697368421053  L 0.0454545454545455 1.77302631578947  C 0.0454545454545455 0.819245086640899  0.808605540061147 0.0460526315789474  1.75 0  L 14.25 0  C 15.1913944599389 0.0460526315789474  15.9545454545455 0.819245086640899  15.9545454545455 1.77302631578947  L 15.9545454545455 5.22697368421053  Z M 14.25 1.19736842105263  L 1.75 1.19736842105263  C 1.43620184668705 1.19736842105263  1.18181818181818 1.45509923940662  1.18181818181818 1.77302631578947  L 1.18181818181818 5.22697368421053  C 1.18181818181818 5.54490076059338  1.43620184668705 5.80263157894737  1.75 5.80263157894737  L 14.25 5.80263157894737  C 14.563798153313 5.80263157894737  14.8181818181818 5.54490076059338  14.8181818181818 5.22697368421053  L 14.8181818181818 1.77302631578947  C 14.8181818181818 1.45509923940662  14.563798153313 1.19736842105263  14.25 1.19736842105263  Z " fill-rule="nonzero" fill="#54c3f1" stroke="none" transform="matrix(1 0 0 1 0 6 )" />
  </g>
</svg>