<?xml version="1.0" encoding="utf-8"?>
<svg version="1.1" xmlns:xlink="http://www.w3.org/1999/xlink" width="16px" height="15px" xmlns="http://www.w3.org/2000/svg">
  <g>
    <path d="M 1.99021172027062 0  L 13.9314819991359 0  C 15.0306455811759 0.0265657234050839  15.9216937194065 0.93910313399116  16 2.06477507687517  L 16 12.9352249231248  C 15.9216937194065 14.0608968660088  15.0306455811759 14.9734342765949  13.9314819991359 15  L 1.99021172027062 15  C 0.89104813823065 14.9734342765949  0 14.0608968660088  0 12.9352249231248  L 0 2.06477507687517  C 0 0.93910313399116  0.89104813823065 0.026565723405084  1.99021172027062 0  Z M 8.07229871769175 12.6328905404616  L 4.57748693951906 7.26424711474835  L 1.32680780876281 11.1477153234596  L 1.32680780876281 12.9352249231248  C 1.32685217387064 13.2796652027235  1.57857430364538 13.5695727109272  1.9125934517208 13.6098722266552  L 1.99021172027063 13.6146280458137  L 13.9314819991359 13.6146280458137  C 14.0481807574502 13.6149034824677  14.1628648578754 13.5834897314736  14.2638473594427 13.5235880269355  C 14.2225098729576 13.4999250692063  14.1839955950472 13.4714257012586  14.1490784929426 13.4386626347748  L 14.0913623467265 13.377516353003  L 11.2951148857325 9.92343090965708  L 9.14236921391253 12.6804487612393  C 9.01648529764213 12.8419134978198  8.82569622905134 12.9359374697619  8.62394341538821 12.9359374697619  C 8.43124524416556 12.9359374697619  8.24806921684006 12.8501299308018  8.12205400927324 12.7008308600288  L 8.07229871769175 12.6328905404616  Z M 14.0091002676857 1.39012777334475  L 13.9314819991359 1.38537195418629  L 1.99021172027063 1.38537195418629  C 1.62382385696676 1.38537195418629  1.32680780876281 1.68955109322668  1.32680780876281 2.06477507687517  L 1.32680780876281 9.05990955976801  L 4.13964036219974 5.69890233934063  C 4.26567627788418 5.54823352644403  4.44972299097202 5.4615123006215  4.64344846605957 5.4615123006215  C 4.83686864110214 5.4615123006215  5.02065678131445 5.54796149599939  5.14668749003416 5.69822294285937  L 5.19577938418917 5.76412504378966  L 8.67267924656039 11.1055923329181  L 10.7597479317824 8.43417928457436  C 10.8856508502352 8.27320769580215  11.0761364083629 8.17952130378081  11.2775250235941 8.17952130378081  C 11.4428178594976 8.17952130378081  11.6021570501511 8.24271533712586  11.7243372109907 8.35672732669028  L 11.7813899455275 8.41651480090304  L 14.5948859106437 11.8739972558483  L 14.5948859106437 2.06477507687517  C 14.5948415455359 1.72033479727651  14.3431194157612 1.4304272890728  14.0091002676857 1.39012777334475  Z M 11.2778663816103 3.42358130765638  C 12.0106421003464 3.42358130765638  12.6046741903731 4.03193957920206  12.6046741903731 4.78238753843759  C 12.6046741903731 5.53283549767311  12.0106421003464 6.14119376921879  11.2778663816103 6.14119376921879  C 10.5450906628742 6.14119376921879  9.95105857284749 5.53283549767311  9.95105857284749 4.78238753843759  C 9.95105857284749 4.03193957920206  10.5450906628742 3.42358130765638  11.2778663816103 3.42358130765638  Z " fill-rule="nonzero" fill="#008df0" stroke="none" />
  </g>
</svg>