<?xml version="1.0" encoding="utf-8"?>
<svg version="1.1" xmlns:xlink="http://www.w3.org/1999/xlink" width="13px" height="14px" xmlns="http://www.w3.org/2000/svg">
  <g transform="matrix(1 0 0 1 -11 -10 )">
    <path d="M 7.69772256728779 6.67735470941884  C 7.78743961352657 6.77087508350033  7.83229813664596 6.87842351369405  7.83229813664596 7  C 7.83229813664596 7.12157648630594  7.78743961352657 7.22912491649967  7.69772256728779 7.32264529058116  L 1.42650103519669 13.8597194388778  C 1.3367839889579 13.9532398129593  1.2336093857833 14  1.11697722567288 14  C 1.00034506556246 14  0.897170462387854 13.9532398129593  0.807453416149068 13.8597194388778  L 0.134575569358178 13.1583166332665  C 0.0448585231193927 13.064796259185  0 12.9572478289913  0 12.8356713426854  C 0 12.7140948563794  0.0448585231193927 12.6065464261857  0.134575569358178 12.5130260521042  L 5.42339544513458 7  L 0.134575569358178 1.48697394789579  C 0.0448585231193927 1.39345357381429  0 1.28590514362057  0 1.16432865731463  C 0 1.04275217100868  0.0448585231193927 0.935203740814962  0.134575569358178 0.841683366733466  L 0.807453416149068 0.140280561122245  C 0.897170462387854 0.0467601870407477  1.00034506556246 0  1.11697722567288 0  C 1.2336093857833 0  1.3367839889579 0.0467601870407477  1.42650103519669 0.140280561122245  L 7.69772256728779 6.67735470941884  Z M 12.8654244306418 6.67735470941884  C 12.9551414768806 6.77087508350033  13 6.87842351369405  13 7  C 13 7.12157648630594  12.9551414768806 7.22912491649967  12.8654244306418 7.32264529058116  L 6.59420289855072 13.8597194388778  C 6.50448585231194 13.9532398129593  6.40131124913734 14  6.28467908902692 14  C 6.16804692891649 14  6.06487232574189 13.9532398129593  5.97515527950311 13.8597194388778  L 5.30227743271222 13.1583166332665  C 5.21256038647343 13.064796259185  5.16770186335404 12.9572478289913  5.16770186335404 12.8356713426854  C 5.16770186335404 12.7140948563794  5.21256038647343 12.6065464261857  5.30227743271222 12.5130260521042  L 10.5910973084886 7  L 5.30227743271222 1.48697394789579  C 5.21256038647343 1.39345357381429  5.16770186335404 1.28590514362057  5.16770186335404 1.16432865731463  C 5.16770186335404 1.04275217100868  5.21256038647343 0.935203740814962  5.30227743271222 0.841683366733466  L 5.97515527950311 0.140280561122245  C 6.06487232574189 0.0467601870407477  6.16804692891649 0  6.28467908902692 0  C 6.40131124913734 0  6.50448585231194 0.0467601870407477  6.59420289855072 0.140280561122245  L 12.8654244306418 6.67735470941884  Z " fill-rule="nonzero" fill="#555555" stroke="none" transform="matrix(1 0 0 1 11 10 )" />
  </g>
</svg>