<?xml version="1.0" encoding="utf-8"?>
<svg version="1.1" xmlns:xlink="http://www.w3.org/1999/xlink" width="20px" height="21px" xmlns="http://www.w3.org/2000/svg">
  <g transform="matrix(1 0 0 1 -8 -8 )">
    <path d="M 19.4972826086957 9.28690629011553  C 19.8324275362319 9.60141206675225  20 10.0057766367137  20 10.5  C 20 10.9852374839538  19.8324275362319 11.3940949935815  19.4972826086957 11.7265725288832  L 10.6521739130435 20.5012836970475  C 10.2989130434783 20.8337612323492  9.88677536231884 21  9.41576086956522 21  C 8.95380434782609 21  8.54619565217391 20.8337612323492  8.1929347826087 20.5012836970475  L 7.17391304347826 19.4903722721438  C 6.82971014492754 19.1489088575096  6.65760869565217 18.7400513478819  6.65760869565217 18.2637997432606  C 6.65760869565217 17.7875481386393  6.82971014492754 17.3786906290116  7.17391304347826 17.0372272143774  L 11.1548913043478 13.0879332477535  L 1.58967391304348 13.0879332477535  C 1.11865942028986 13.0879332477535  0.735960144927536 12.9194480102696  0.441576086956522 12.5824775353017  C 0.147192028985507 12.2455070603338  0 11.8388960205392  0 11.3626444159178  L 0 9.63735558408216  C 0 9.16110397946085  0.147192028985507 8.75449293966624  0.441576086956522 8.41752246469833  C 0.735960144927536 8.08055198973042  1.11865942028986 7.91206675224647  1.58967391304348 7.91206675224647  L 11.1548913043478 7.91206675224647  L 7.17391304347826 3.94929396662388  C 6.82971014492754 3.62580231065469  6.65760869565217 3.2214377406932  6.65760869565217 2.73620025673941  C 6.65760869565217 2.25096277278562  6.82971014492754 1.84659820282413  7.17391304347826 1.52310654685494  L 8.1929347826087 0.51219512195122  C 8.53713768115942 0.170731707317072  8.94474637681159 0  9.41576086956522 0  C 9.89583333333333 0  10.3079710144928 0.170731707317072  10.6521739130435 0.51219512195122  L 19.4972826086957 9.28690629011553  Z " fill-rule="nonzero" fill="#000000" stroke="none" transform="matrix(1 0 0 1 8 8 )" />
  </g>
</svg>