<?xml version="1.0" encoding="utf-8"?>
<svg version="1.1" xmlns:xlink="http://www.w3.org/1999/xlink" width="18px" height="18px" xmlns="http://www.w3.org/2000/svg">
  <g transform="matrix(1 0 0 1 -15 -12 )">
    <path d="M 15 12  L 33 12  L 33 30  L 15 30  L 15 12  " fill-rule="nonzero" fill="#cccccc" stroke="none" />
    <path d="M 16 13  L 32 13  L 32 29  L 16 29  L 16 13  " fill-rule="nonzero" fill="#ffffff" stroke="none" />
    <path d="M 25.71 17.4  C 24.954 17.4  24.36 16.806  24.36 16.05  C 24.36 15.294  24.954 14.7  25.71 14.7  C 26.466 14.7  27.06 15.294  27.06 16.05  C 27.06 16.806  26.466 17.4  25.71 17.4  " fill-rule="nonzero" fill="#cccccc" stroke="none" />
    <path d="M 17 29  L 17 20.75  L 20.75 17  L 26 20  L 29 19.25  L 32 20  L 32 29  L 17 29  " fill-rule="nonzero" fill="#169bd5" stroke="none" />
  </g>
</svg>