<?xml version="1.0" encoding="utf-8"?>
<svg version="1.1" xmlns:xlink="http://www.w3.org/1999/xlink" width="30px" height="23px" xmlns="http://www.w3.org/2000/svg">
  <g transform="matrix(1 0 0 1 -107 -19 )">
    <path d="M 107 33.1  C 107 33.1  107 21  107 21  C 107 19.8954305003384  107.895430500338 19  109 19  C 109 19  135 19  135 19  C 136.104569499662 19  137 19.8954305003384  137 21  C 137 21  137 33.1  137 33.1  C 137 34.2045694996616  136.104569499662 35.1  135 35.1  C 135 35.1  128.3 35.1  128.3 35.1  C 128.3 35.1  121.3 42  121.3 42  C 121.3 42  116.3 35.1  116.3 35.1  C 116.3 35.1  109 35.1  109 35.1  C 107.895430500338 35.1  107 34.2045694996616  107 33.1  Z " fill-rule="nonzero" fill="#666666" stroke="none" />
  </g>
</svg>