<?xml version="1.0" encoding="utf-8"?>
<svg version="1.1" xmlns:xlink="http://www.w3.org/1999/xlink" width="71px" height="40px" xmlns="http://www.w3.org/2000/svg">
  <g>
    <path d="M 0 0  L 71 0  L 71 40  L 0 40  L 0 0  " fill-rule="nonzero" fill="#cccccc" stroke="none" />
    <path d="M 3 3  L 68 3  L 68 37  L 3 37  L 3 3  " fill-rule="nonzero" fill="#ffffff" stroke="none" />
    <path d="M 39.92 12  C 38.24 12  36.92 10.68  36.92 9  C 36.92 7.32  38.24 6  39.92 6  C 41.6 6  42.92 7.32  42.92 9  C 42.92 10.68  41.6 12  39.92 12  " fill-rule="nonzero" fill="#cccccc" stroke="none" />
    <path d="M 4 36  L 4 18.4  L 19.75 10.4  L 41.8 25.1830985915493  L 54.4 15.2  L 67 25.1830985915493  L 67 36  L 4 36  " fill-rule="nonzero" fill="#169bd5" stroke="none" />
  </g>
</svg>