<?xml version="1.0" encoding="utf-8"?>
<svg version="1.1" xmlns:xlink="http://www.w3.org/1999/xlink" width="20px" height="22px" xmlns="http://www.w3.org/2000/svg">
  <defs>
    <mask fill="white" id="clip65">
      <path d="M 19.4972826086957 9.72913992297818  C 19.8324275362319 10.058622165169  20 10.482242190843  20 11  C 20 11.5083440308087  19.8324275362319 11.9366709456568  19.4972826086957 12.2849807445443  L 10.6521739130435 21.4775353016688  C 10.2989130434783 21.8258451005563  9.88677536231884 22  9.41576086956522 22  C 8.95380434782609 22  8.54619565217391 21.8258451005563  8.1929347826087 21.4775353016688  L 7.17391304347826 20.418485237484  C 6.82971014492754 20.0607616602482  6.65760869565217 19.6324347454001  6.65760869565217 19.1335044929397  C 6.65760869565217 18.6345742404792  6.82971014492754 18.2062473256312  7.17391304347826 17.8485237483954  L 11.1548913043478 13.7111681643132  L 1.58967391304348 13.7111681643132  C 1.11865942028986 13.7111681643132  0.735960144927536 13.5346598202824  0.441576086956522 13.1816431322208  C 0.147192028985507 12.8286264441592  0 12.4026529738982  0 11.9037227214377  L 0 10.0962772785623  C 0 9.59734702610184  0.147192028985507 9.17137355584082  0.441576086956522 8.8183568677792  C 0.735960144927536 8.46534017971759  1.11865942028986 8.28883183568678  1.58967391304348 8.28883183568678  L 11.1548913043478 8.28883183568678  L 7.17391304347826 4.13735558408216  C 6.82971014492754 3.798459563543  6.65760869565217 3.37483953786906  6.65760869565217 2.86649550706033  C 6.65760869565217 2.35815147625161  6.82971014492754 1.93453145057766  7.17391304347826 1.59563543003851  L 8.1929347826087 0.536585365853659  C 8.53713768115942 0.178861788617885  8.94474637681159 0  9.41576086956522 0  C 9.89583333333333 0  10.3079710144928 0.178861788617885  10.6521739130435 0.536585365853659  L 19.4972826086957 9.72913992297818  Z " fill-rule="evenodd" />
    </mask>
  </defs>
  <g transform="matrix(1 0 0 1 -1089 -699 )">
    <path d="M 19.4972826086957 9.72913992297818  C 19.8324275362319 10.058622165169  20 10.482242190843  20 11  C 20 11.5083440308087  19.8324275362319 11.9366709456568  19.4972826086957 12.2849807445443  L 10.6521739130435 21.4775353016688  C 10.2989130434783 21.8258451005563  9.88677536231884 22  9.41576086956522 22  C 8.95380434782609 22  8.54619565217391 21.8258451005563  8.1929347826087 21.4775353016688  L 7.17391304347826 20.418485237484  C 6.82971014492754 20.0607616602482  6.65760869565217 19.6324347454001  6.65760869565217 19.1335044929397  C 6.65760869565217 18.6345742404792  6.82971014492754 18.2062473256312  7.17391304347826 17.8485237483954  L 11.1548913043478 13.7111681643132  L 1.58967391304348 13.7111681643132  C 1.11865942028986 13.7111681643132  0.735960144927536 13.5346598202824  0.441576086956522 13.1816431322208  C 0.147192028985507 12.8286264441592  0 12.4026529738982  0 11.9037227214377  L 0 10.0962772785623  C 0 9.59734702610184  0.147192028985507 9.17137355584082  0.441576086956522 8.8183568677792  C 0.735960144927536 8.46534017971759  1.11865942028986 8.28883183568678  1.58967391304348 8.28883183568678  L 11.1548913043478 8.28883183568678  L 7.17391304347826 4.13735558408216  C 6.82971014492754 3.798459563543  6.65760869565217 3.37483953786906  6.65760869565217 2.86649550706033  C 6.65760869565217 2.35815147625161  6.82971014492754 1.93453145057766  7.17391304347826 1.59563543003851  L 8.1929347826087 0.536585365853659  C 8.53713768115942 0.178861788617885  8.94474637681159 0  9.41576086956522 0  C 9.89583333333333 0  10.3079710144928 0.178861788617885  10.6521739130435 0.536585365853659  L 19.4972826086957 9.72913992297818  Z " fill-rule="nonzero" fill="#4ebded" stroke="none" transform="matrix(1 0 0 1 1089 699 )" />
    <path d="M 19.4972826086957 9.72913992297818  C 19.8324275362319 10.058622165169  20 10.482242190843  20 11  C 20 11.5083440308087  19.8324275362319 11.9366709456568  19.4972826086957 12.2849807445443  L 10.6521739130435 21.4775353016688  C 10.2989130434783 21.8258451005563  9.88677536231884 22  9.41576086956522 22  C 8.95380434782609 22  8.54619565217391 21.8258451005563  8.1929347826087 21.4775353016688  L 7.17391304347826 20.418485237484  C 6.82971014492754 20.0607616602482  6.65760869565217 19.6324347454001  6.65760869565217 19.1335044929397  C 6.65760869565217 18.6345742404792  6.82971014492754 18.2062473256312  7.17391304347826 17.8485237483954  L 11.1548913043478 13.7111681643132  L 1.58967391304348 13.7111681643132  C 1.11865942028986 13.7111681643132  0.735960144927536 13.5346598202824  0.441576086956522 13.1816431322208  C 0.147192028985507 12.8286264441592  0 12.4026529738982  0 11.9037227214377  L 0 10.0962772785623  C 0 9.59734702610184  0.147192028985507 9.17137355584082  0.441576086956522 8.8183568677792  C 0.735960144927536 8.46534017971759  1.11865942028986 8.28883183568678  1.58967391304348 8.28883183568678  L 11.1548913043478 8.28883183568678  L 7.17391304347826 4.13735558408216  C 6.82971014492754 3.798459563543  6.65760869565217 3.37483953786906  6.65760869565217 2.86649550706033  C 6.65760869565217 2.35815147625161  6.82971014492754 1.93453145057766  7.17391304347826 1.59563543003851  L 8.1929347826087 0.536585365853659  C 8.53713768115942 0.178861788617885  8.94474637681159 0  9.41576086956522 0  C 9.89583333333333 0  10.3079710144928 0.178861788617885  10.6521739130435 0.536585365853659  L 19.4972826086957 9.72913992297818  Z " stroke-width="4" stroke="#333333" fill="none" transform="matrix(1 0 0 1 1089 699 )" mask="url(#clip65)" />
  </g>
</svg>