<?xml version="1.0" encoding="utf-8"?>
<svg version="1.1" xmlns:xlink="http://www.w3.org/1999/xlink" width="20px" height="22px" xmlns="http://www.w3.org/2000/svg">
  <defs>
    <mask fill="white" id="clip17">
      <path d="M 19.5584239130435 8.8183568677792  C 19.8528079710145 9.17137355584082  20 9.59734702610184  20 10.0962772785623  L 20 11.9037227214377  C 20 12.4026529738982  19.8528079710145 12.8286264441592  19.5584239130435 13.1816431322208  C 19.2640398550725 13.5346598202824  18.8813405797101 13.7111681643132  18.4103260869565 13.7111681643132  L 8.84510869565217 13.7111681643132  L 12.8260869565217 17.8626444159178  C 13.1702898550725 18.201540436457  13.3423913043478 18.6251604621309  13.3423913043478 19.1335044929397  C 13.3423913043478 19.6418485237484  13.1702898550725 20.0654685494223  12.8260869565217 20.4043645699615  L 11.8070652173913 21.4775353016688  C 11.4719202898551 21.8258451005563  11.0643115942029 22  10.5842391304348 22  C 10.1132246376812 22  9.70108695652174 21.8258451005563  9.34782608695652 21.4775353016688  L 0.502717391304348 12.2708600770218  C 0.167572463768116 11.9225502781344  0 11.4989302524604  0 11  C 0 10.5104835258879  0.167572463768116 10.0821566110398  0.502717391304348 9.71501925545571  L 9.34782608695652 0.536585365853659  C 9.69202898550725 0.178861788617885  10.1041666666667 0  10.5842391304348 0  C 11.0552536231884 0  11.4628623188406 0.178861788617885  11.8070652173913 0.536585365853659  L 12.8260869565217 1.58151476251605  C 13.1702898550725 1.93923833975182  13.3423913043478 2.36756525459991  13.3423913043478 2.86649550706033  C 13.3423913043478 3.36542575952075  13.1702898550725 3.79375267436885  12.8260869565217 4.15147625160462  L 8.84510869565217 8.28883183568678  L 18.4103260869565 8.28883183568678  C 18.8813405797101 8.28883183568678  19.2640398550725 8.46534017971759  19.5584239130435 8.8183568677792  Z " fill-rule="evenodd" />
    </mask>
  </defs>
  <g transform="matrix(1 0 0 1 -192 -699 )">
    <path d="M 19.5584239130435 8.8183568677792  C 19.8528079710145 9.17137355584082  20 9.59734702610184  20 10.0962772785623  L 20 11.9037227214377  C 20 12.4026529738982  19.8528079710145 12.8286264441592  19.5584239130435 13.1816431322208  C 19.2640398550725 13.5346598202824  18.8813405797101 13.7111681643132  18.4103260869565 13.7111681643132  L 8.84510869565217 13.7111681643132  L 12.8260869565217 17.8626444159178  C 13.1702898550725 18.201540436457  13.3423913043478 18.6251604621309  13.3423913043478 19.1335044929397  C 13.3423913043478 19.6418485237484  13.1702898550725 20.0654685494223  12.8260869565217 20.4043645699615  L 11.8070652173913 21.4775353016688  C 11.4719202898551 21.8258451005563  11.0643115942029 22  10.5842391304348 22  C 10.1132246376812 22  9.70108695652174 21.8258451005563  9.34782608695652 21.4775353016688  L 0.502717391304348 12.2708600770218  C 0.167572463768116 11.9225502781344  0 11.4989302524604  0 11  C 0 10.5104835258879  0.167572463768116 10.0821566110398  0.502717391304348 9.71501925545571  L 9.34782608695652 0.536585365853659  C 9.69202898550725 0.178861788617885  10.1041666666667 0  10.5842391304348 0  C 11.0552536231884 0  11.4628623188406 0.178861788617885  11.8070652173913 0.536585365853659  L 12.8260869565217 1.58151476251605  C 13.1702898550725 1.93923833975182  13.3423913043478 2.36756525459991  13.3423913043478 2.86649550706033  C 13.3423913043478 3.36542575952075  13.1702898550725 3.79375267436885  12.8260869565217 4.15147625160462  L 8.84510869565217 8.28883183568678  L 18.4103260869565 8.28883183568678  C 18.8813405797101 8.28883183568678  19.2640398550725 8.46534017971759  19.5584239130435 8.8183568677792  Z " fill-rule="nonzero" fill="#4ebded" stroke="none" transform="matrix(1 0 0 1 192 699 )" />
    <path d="M 19.5584239130435 8.8183568677792  C 19.8528079710145 9.17137355584082  20 9.59734702610184  20 10.0962772785623  L 20 11.9037227214377  C 20 12.4026529738982  19.8528079710145 12.8286264441592  19.5584239130435 13.1816431322208  C 19.2640398550725 13.5346598202824  18.8813405797101 13.7111681643132  18.4103260869565 13.7111681643132  L 8.84510869565217 13.7111681643132  L 12.8260869565217 17.8626444159178  C 13.1702898550725 18.201540436457  13.3423913043478 18.6251604621309  13.3423913043478 19.1335044929397  C 13.3423913043478 19.6418485237484  13.1702898550725 20.0654685494223  12.8260869565217 20.4043645699615  L 11.8070652173913 21.4775353016688  C 11.4719202898551 21.8258451005563  11.0643115942029 22  10.5842391304348 22  C 10.1132246376812 22  9.70108695652174 21.8258451005563  9.34782608695652 21.4775353016688  L 0.502717391304348 12.2708600770218  C 0.167572463768116 11.9225502781344  0 11.4989302524604  0 11  C 0 10.5104835258879  0.167572463768116 10.0821566110398  0.502717391304348 9.71501925545571  L 9.34782608695652 0.536585365853659  C 9.69202898550725 0.178861788617885  10.1041666666667 0  10.5842391304348 0  C 11.0552536231884 0  11.4628623188406 0.178861788617885  11.8070652173913 0.536585365853659  L 12.8260869565217 1.58151476251605  C 13.1702898550725 1.93923833975182  13.3423913043478 2.36756525459991  13.3423913043478 2.86649550706033  C 13.3423913043478 3.36542575952075  13.1702898550725 3.79375267436885  12.8260869565217 4.15147625160462  L 8.84510869565217 8.28883183568678  L 18.4103260869565 8.28883183568678  C 18.8813405797101 8.28883183568678  19.2640398550725 8.46534017971759  19.5584239130435 8.8183568677792  Z " stroke-width="4" stroke="#333333" fill="none" transform="matrix(1 0 0 1 192 699 )" mask="url(#clip17)" />
  </g>
</svg>